<svg width="24" height="24" viewBox="0 0 24 24" fill="none" xmlns="http://www.w3.org/2000/svg">
<path d="M9.23344 17.8898C14.3236 17.8898 18.467 13.8759 18.467 8.94491C18.467 4.01389 14.3236 0 9.23344 0C4.14327 0 -0.000167847 4.01389 -0.000167847 8.94491C-0.000167847 13.8759 4.13098 17.8898 9.23344 17.8898ZM9.23344 2.26303C13.0326 2.26303 16.131 5.26451 16.131 8.94491C16.131 12.6253 13.0326 15.6268 9.23344 15.6268C5.43426 15.6268 2.3359 12.6253 2.3359 8.94491C2.3359 5.26451 5.42196 2.26303 9.23344 2.26303Z" fill="#4D4D4D"/>
<path d="M23.0656 24C23.2992 24 23.5328 23.9166 23.7172 23.738C24.0738 23.3925 24.0738 22.8208 23.7172 22.4754L15.3074 14.3285C14.9508 13.9831 14.3606 13.9831 14.0041 14.3285C13.6475 14.6739 13.6475 15.2456 14.0041 15.591L22.4139 23.738C22.5983 23.9166 22.832 24 23.0656 24Z" fill="#4D4D4D"/>
</svg>