<svg width="31" height="27" viewBox="0 0 31 27" fill="none" xmlns="http://www.w3.org/2000/svg">
<path d="M30.5973 17.0161C30.1948 17.8621 29.9151 18.7967 29.3625 19.5267C28.4961 20.666 27.2204 21.1231 25.7809 21.1163C22.0014 21.1026 18.222 21.1231 14.4425 21.0958C13.9035 21.089 13.6443 21.2459 13.4533 21.7575C12.928 23.1765 12.3481 24.5751 11.7887 25.9805C11.5704 26.5399 11.2634 26.9833 10.5743 26.9765C9.88529 26.9697 9.59876 26.5058 9.38046 25.9532C8.80739 24.5069 8.21387 23.0606 7.65445 21.6075C7.51119 21.2391 7.33381 21.0753 6.91766 21.0958C6.19451 21.1299 5.47136 21.1094 4.74822 21.1026C2.34682 21.0685 0.600349 19.6086 0.109154 17.2481C0.0886879 17.1662 0.0341107 17.0912 0 17.0093C0 12.7114 0 8.39977 0 4.095C0.0409329 3.9722 0.102332 3.8494 0.129621 3.71978C0.573061 1.59127 2.38775 0.022172 4.56402 0.0153498C11.7205 -0.00511661 18.8769 -0.00511661 26.0401 0.0153498C28.1073 0.022172 29.881 1.46847 30.4131 3.45371C30.4677 3.6652 30.5359 3.87669 30.5973 4.095C30.5973 8.39977 30.5973 12.7114 30.5973 17.0161ZM10.5402 22.6035C10.6562 22.508 10.6767 22.5012 10.6835 22.4807C11.0178 21.6689 11.3521 20.8502 11.6863 20.0384C12.123 18.9605 12.3276 18.8172 13.5079 18.8172C17.5875 18.8172 21.6603 18.824 25.74 18.8104C27.3022 18.8036 28.271 17.8143 28.2778 16.2521C28.2846 12.4453 28.2846 8.63855 28.2778 4.83179C28.271 3.30363 27.2818 2.31441 25.7741 2.31441C18.795 2.30759 11.816 2.30759 4.84373 2.31441C3.32921 2.31441 2.33318 3.30363 2.33318 4.82497C2.31953 8.65219 2.31953 12.4794 2.33318 16.3135C2.34 17.8007 3.31556 18.7831 4.79597 18.8104C5.81247 18.8308 6.83579 18.8104 7.85229 18.8172C8.82786 18.824 9.10075 19.0082 9.47597 19.936C9.81707 20.8093 10.1718 21.6893 10.5402 22.6035Z" fill="#303030"/>
<path d="M24.3008 6.70116H6.30401C5.85375 6.70116 5.48535 6.33276 5.48535 5.8825C5.48535 5.43224 5.85375 5.06384 6.30401 5.06384H24.3008C24.7511 5.06384 25.1195 5.43224 25.1195 5.8825C25.1195 6.33958 24.7511 6.70116 24.3008 6.70116Z" fill="#303030"/>
<path d="M24.3008 10.8489H6.30401C5.85375 10.8489 5.48535 10.4805 5.48535 10.0302C5.48535 9.57994 5.85375 9.21155 6.30401 9.21155H24.3008C24.7511 9.21155 25.1195 9.57994 25.1195 10.0302C25.1195 10.4805 24.7511 10.8489 24.3008 10.8489Z" fill="#303030"/>
<path d="M15.5207 14.99H6.30401C5.85375 14.99 5.48535 14.6216 5.48535 14.1713C5.48535 13.7211 5.85375 13.3527 6.30401 13.3527H15.5207C15.971 13.3527 16.3394 13.7211 16.3394 14.1713C16.3394 14.6284 15.971 14.99 15.5207 14.99Z" fill="#303030"/>
</svg>

