<svg width="14" height="16" viewBox="0 0 14 16" fill="none" xmlns="http://www.w3.org/2000/svg">
<path d="M11.7188 7.4375H11.0156V5.32812C11.0156 2.89648 8.99414 0.875 6.5625 0.875C4.10156 0.875 2.10938 2.89648 2.10938 5.32812V7.4375H1.40625C0.615234 7.4375 0 8.08203 0 8.84375V14.4688C0 15.2598 0.615234 15.875 1.40625 15.875H11.7188C12.4805 15.875 13.125 15.2598 13.125 14.4688V8.84375C13.125 8.08203 12.4805 7.4375 11.7188 7.4375ZM8.67188 7.4375H4.45312V5.32812C4.45312 4.18555 5.39062 3.21875 6.5625 3.21875C7.70508 3.21875 8.67188 4.18555 8.67188 5.32812V7.4375Z" fill="#D6D6D6"/>
</svg>
