<svg width="35" height="22" viewBox="0 0 35 22" fill="none" xmlns="http://www.w3.org/2000/svg">
<path d="M0 8.67081C0.136742 8.55116 0.239298 8.36314 0.393132 8.29477C2.29042 7.54269 3.23052 5.76505 4.56375 4.43182C5.31583 3.67974 6.05081 2.89347 6.85417 2.19267C9.70865 -0.285767 12.6144 -0.661806 15.9817 1.13293C16.8534 1.59443 17.4687 1.59443 18.3234 1.13293C21.7761 -0.695992 24.7502 -0.319952 27.6389 2.32942C29.0918 3.66265 30.3224 5.21808 31.724 6.61968C32.271 7.16665 32.9205 7.64524 33.5872 8.05547C34.305 8.49988 34.5272 8.94429 34.0999 9.71346C30.9891 15.4053 26.5962 19.5247 20.0326 20.7383C14.7852 21.7125 10.136 20.1913 6.01663 16.8753C3.45272 14.8242 1.46997 12.2603 0 9.32033C0 9.09812 0 8.89301 0 8.67081ZM31.9463 9.69637C31.16 8.85883 30.4592 8.14093 29.7584 7.40595C28.6986 6.27783 27.6902 5.11553 26.5791 4.03869C25.639 3.13277 24.5964 2.34651 23.2461 2.10721C21.383 1.78245 19.7592 2.43197 18.2892 3.42335C17.4858 3.97031 16.8876 3.98741 16.0671 3.42335C14.5801 2.43197 12.9734 1.74826 11.1103 2.10721C10.7 2.19267 10.2727 2.27814 9.89667 2.48325C7.2644 3.93613 5.58931 6.36329 3.504 8.63662C5.46966 8.63662 7.21312 8.60244 8.97367 8.65371C9.77702 8.67081 10.4436 8.48279 11.1273 8.03838C14.8365 5.67958 18.6652 5.42319 22.5111 7.62815C23.6221 8.26058 24.6648 8.80755 25.998 8.65371C26.5962 8.58534 26.9552 8.99557 26.9723 9.57672C26.9894 10.1921 26.6133 10.551 25.9809 10.6023C25.8783 10.6023 25.7587 10.6194 25.6561 10.6023C24.6648 10.4655 23.8443 10.8245 22.9897 11.3373C19.0755 13.7302 15.127 13.6961 11.247 11.2689C10.4607 10.7732 9.69156 10.5681 8.78565 10.6023C6.90545 10.6536 5.02525 10.6194 2.95704 10.6194C6.52941 15.5933 10.8539 19.0119 17.0414 19.029C23.8956 19.029 28.4422 15.0977 31.9463 9.69637ZM12.4264 9.59381C14.8365 11.6108 20.0668 11.5766 21.8787 9.55963C18.7336 7.61106 15.1954 7.62815 12.4264 9.59381Z" fill="#303030"/>
</svg>
